<svg width="512" height="512" viewBox="0 0 512 512" fill="none" xmlns="http://www.w3.org/2000/svg">
    <rect width="512" height="512" fill="#19171A"/>
    <path d="M120.897 143L99.2681 194.483H407.385L407.178 143.001H207.029V185.184H195.65V143.001H182.996V185.184H171.62V143.001H158.394V185.184H147.015V143.001L120.897 143ZM415.119 155.108V185.954H429.296V155.108H415.119ZM103.85 205.861L119.452 230.149L82.7042 363.558L159.842 369L176.182 294.657H263.986L275.111 233.776L407.529 230.838L407.431 205.862H103.849L103.85 205.861ZM260.638 234.098L252.164 280.482H179.297L189.144 235.685L198.65 235.474L196.963 262.405L207.782 272.704L208.543 247.176L227.274 234.838L260.638 234.098H260.638Z" fill="#FF372B"/>
</svg>